<?xml version="1.0" standalone="no"?>
<!DOCTYPE svg PUBLIC "-//W3C//DTD SVG 20010904//EN"
 "http://www.w3.org/TR/2001/REC-SVG-20010904/DTD/svg10.dtd">
<svg version="1.0" xmlns="http://www.w3.org/2000/svg"
 width="700.000000pt" height="700.000000pt" viewBox="0 0 700.000000 700.000000"
 preserveAspectRatio="xMidYMid meet">
<metadata>
Created by potrace 1.14, written by Peter Selinger 2001-2017
</metadata>
<g transform="translate(0.000000,700.000000) scale(0.100000,-0.100000)"
fill="#000000" stroke="none">
<path d="M200 6979 c-14 -6 -41 -28 -62 -50 -31 -34 -37 -47 -40 -97 -6 -101
-1 -5185 6 -5232 3 -25 20 -87 36 -139 150 -467 553 -852 1155 -1104 168 -70
484 -171 605 -193 14 -3 53 -11 86 -19 102 -23 370 -69 464 -79 30 -4 66 -8
80 -11 36 -6 124 -15 210 -21 41 -3 86 -7 100 -10 104 -17 916 -25 1165 -10
176 10 346 25 470 41 212 28 281 38 345 50 41 8 91 17 110 20 42 7 174 37 285
65 44 11 89 22 100 25 11 3 88 28 170 56 638 218 1090 565 1308 1004 45 91 97
249 105 321 14 121 15 430 15 2887 -1 1966 -3 2383 -14 2405 -42 85 -140 124
-221 88 -48 -21 -88 -63 -89 -94 -1 -15 -3 -38 -5 -52 -2 -14 -6 -527 -10
-1140 -3 -613 -7 -1116 -8 -1117 -1 -2 -23 30 -49 70 -90 142 -204 284 -332
413 -173 173 -293 267 -540 421 -112 71 -385 194 -551 251 -290 99 -457 137
-854 197 -14 2 -54 6 -90 10 -36 3 -81 8 -100 10 -220 27 -830 26 -1110 0 -63
-7 -210 -24 -240 -29 -14 -3 -43 -7 -65 -10 -40 -6 -178 -31 -225 -41 -14 -3
-47 -10 -75 -15 -71 -14 -324 -87 -425 -122 -325 -114 -638 -285 -892 -489
-107 -85 -275 -254 -348 -349 -19 -24 -43 -53 -52 -64 -10 -11 -53 -71 -95
-133 -42 -62 -79 -111 -81 -108 -3 3 -6 510 -8 1127 -2 618 -6 1137 -9 1154
-6 35 -64 100 -102 115 -31 12 -91 11 -123 -2z m4805 -3162 c472 -89 844 -413
990 -861 48 -150 60 -224 60 -391 0 -157 -6 -216 -31 -306 -8 -30 -17 -63 -19
-74 -3 -11 -19 -56 -36 -100 -146 -367 -455 -646 -834 -754 -168 -47 -116 -46
-1640 -46 l-1440 0 -100 24 c-131 31 -207 60 -335 128 -340 179 -562 479 -650
878 -16 76 -19 118 -16 265 4 189 6 201 42 330 61 209 172 396 326 547 112
110 134 128 218 181 92 58 201 108 300 137 209 63 163 61 1695 59 1193 -2
1401 -4 1470 -17z"/>
<path d="M2185 2888 c-27 -5 -92 -29 -144 -54 -75 -36 -109 -61 -166 -118 -80
-79 -155 -169 -155 -184 0 -14 248 -204 261 -200 6 2 41 39 78 83 168 199 341
185 504 -42 17 -24 35 -43 40 -43 8 0 54 29 82 53 6 4 33 25 62 46 29 22 68
52 88 69 l36 29 -61 81 c-102 135 -216 221 -353 264 -70 22 -198 30 -272 16z"/>
<path d="M4557 2884 c-69 -16 -184 -72 -241 -117 -51 -39 -81 -71 -157 -165
l-59 -73 127 -100 c71 -54 133 -98 140 -96 6 1 42 38 80 81 87 101 152 140
232 139 97 -1 175 -51 263 -170 21 -29 43 -53 49 -53 23 0 259 185 259 203 0
23 -147 193 -199 231 -154 113 -337 158 -494 120z"/>
</g>
</svg>
